<svg width="32" height="32" viewBox="0 0 32 32" fill="none" xmlns="http://www.w3.org/2000/svg">
<path fill-rule="evenodd" clip-rule="evenodd" d="M1.39062 7.13043C1.39062 5.40154 2.79217 4 4.52106 4H27.4775C29.2064 4 30.608 5.40154 30.608 7.13043V7.84406L16.7994 17.0514C16.6047 17.1766 16.322 17.266 15.9993 17.266C15.6766 17.266 15.3939 17.1766 15.1991 17.0514L1.39062 7.84408V7.13043ZM1.39062 10.9795V24.8695C1.39062 26.5984 2.79217 28 4.52106 28H27.4775C29.2064 28 30.608 26.5984 30.608 24.8695V10.9795L18.2394 19.2266L18.2274 19.2347C17.5708 19.6621 16.7822 19.8747 15.9993 19.8747C15.2164 19.8747 14.4279 19.662 13.7712 19.2346L13.7591 19.2267L1.39062 10.9795Z" fill="#000"/>
</svg>
