<svg width="32" height="32" viewBox="0 0 32 32" fill="none" xmlns="http://www.w3.org/2000/svg">
<path d="M0.320312 10.8387C0.320312 7.11806 0.320312 5.25773 1.05588 3.8417C1.67573 2.64843 2.64868 1.67549 3.84195 1.05563C5.25797 0.320068 7.11831 0.320068 10.839 0.320068H21.1616C24.8823 0.320068 26.7427 0.320068 28.1587 1.05563C29.3519 1.67549 30.3249 2.64843 30.9447 3.8417C31.6803 5.25773 31.6803 7.11806 31.6803 10.8387V21.1614C31.6803 24.8821 31.6803 26.7424 30.9447 28.1584C30.3249 29.3517 29.3519 30.3246 28.1587 30.9445C26.7427 31.6801 24.8823 31.6801 21.1616 31.6801H10.839C7.11831 31.6801 5.25797 31.6801 3.84195 30.9445C2.64868 30.3246 1.67573 29.3517 1.05588 28.1584C0.320312 26.7424 0.320312 24.8821 0.320312 21.1614V10.8387Z" fill="#1265BF"/>
<path d="M7.35914 10.059C8.86162 10.059 10.0796 8.84099 10.0796 7.33852C10.0796 5.83604 8.86162 4.61804 7.35914 4.61804C5.85667 4.61804 4.63867 5.83604 4.63867 7.33852C4.63867 8.84099 5.85667 10.059 7.35914 10.059Z" fill="white"/>
<path d="M12.5711 12.0695H17.0798V14.135C17.0798 14.135 18.3033 11.688 21.6323 11.688C24.6018 11.688 27.0618 13.1508 27.0618 17.6098V27.0126H22.3895V18.7492C22.3895 16.1188 20.9852 15.8295 19.9151 15.8295C17.6943 15.8295 17.3141 17.7451 17.3141 19.0923V27.0126H12.5711V12.0695Z" fill="white"/>
<path d="M4.98764 12.0695H9.73066V27.0126H4.98764V12.0695Z" fill="white"/>
</svg>
