<svg width="32" height="32" viewBox="0 0 32 32" fill="none" xmlns="http://www.w3.org/2000/svg">
<path d="M0.320312 10.8386C0.320312 7.11794 0.320312 5.2576 1.05588 3.84158C1.67573 2.64831 2.64868 1.67537 3.84195 1.05551C5.25797 0.319946 7.11831 0.319946 10.839 0.319946H21.1616C24.8823 0.319946 26.7427 0.319946 28.1587 1.05551C29.3519 1.67537 30.3249 2.64831 30.9447 3.84158C31.6803 5.2576 31.6803 7.11794 31.6803 10.8386V21.1613C31.6803 24.882 31.6803 26.7423 30.9447 28.1583C30.3249 29.3516 29.3519 30.3245 28.1587 30.9444C26.7427 31.6799 24.8823 31.6799 21.1616 31.6799H10.839C7.11831 31.6799 5.25797 31.6799 3.84195 30.9444C2.64868 30.3245 1.67573 29.3516 1.05588 28.1583C0.320312 26.7423 0.320312 24.882 0.320312 21.1613V10.8386Z" fill="url(#paint0_linear_16335_108556)"/>
<path fill-rule="evenodd" clip-rule="evenodd" d="M16.9113 4.6272C19.6872 4.76362 22.2737 5.90829 24.2493 7.88519C26.3566 9.99378 27.5165 12.7967 27.5153 15.7774C27.5128 21.9285 22.5054 26.9332 16.3539 26.9332H16.3493C14.4812 26.9326 12.6458 26.4642 11.0155 25.5754L5.09863 27.1267L6.68213 21.3457C5.70538 19.6539 5.19142 17.7348 5.19222 15.7686C5.19469 9.61768 10.2017 4.6134 16.3538 4.6134L16.9113 4.6272ZM11.2896 23.5558L11.6284 23.7567C13.0528 24.6015 14.6854 25.0485 16.3501 25.0492H16.3539C21.4671 25.0492 25.6287 20.8895 25.6308 15.7768C25.6317 13.2992 24.6677 10.9696 22.9162 9.21695C21.1647 7.46422 18.8355 6.49842 16.3576 6.49761C11.2404 6.49761 7.07876 10.6568 7.07672 15.7692C7.07603 17.5213 7.56647 19.2276 8.49511 20.7038L8.71568 21.0547L7.7785 24.4763L11.2896 23.5558ZM21.9769 18.4303C21.9073 18.3139 21.7214 18.2442 21.4425 18.1047C21.1636 17.9651 19.7925 17.2908 19.5368 17.1977C19.2812 17.1048 19.0952 17.0583 18.9093 17.3373C18.7235 17.6163 18.189 18.2442 18.0262 18.4303C17.8636 18.6163 17.7009 18.6396 17.4221 18.5C17.1432 18.3605 16.2446 18.0661 15.1793 17.1165C14.3502 16.3773 13.7905 15.4645 13.6278 15.1855C13.4652 14.9065 13.6105 14.7555 13.7501 14.6166C13.8756 14.4917 14.029 14.291 14.1685 14.1282C14.3079 13.9655 14.3544 13.8491 14.4474 13.6632C14.5403 13.4771 14.4938 13.3144 14.4241 13.1749C14.3544 13.0353 13.7966 11.6632 13.5643 11.1051C13.3378 10.5616 13.1079 10.6352 12.9367 10.6266C12.7743 10.6185 12.5882 10.6168 12.4023 10.6168C12.2163 10.6168 11.9142 10.6865 11.6585 10.9656C11.4029 11.2446 10.6824 11.919 10.6824 13.291C10.6824 14.6631 11.6818 15.9885 11.8212 16.1746C11.9607 16.3607 13.7878 19.1761 16.5854 20.3836C17.2508 20.6708 17.7703 20.8423 18.1753 20.9708C18.8434 21.1829 19.4513 21.153 19.9319 21.0812C20.4677 21.0012 21.5819 20.4069 21.8143 19.7558C22.0467 19.1046 22.0467 18.5465 21.9769 18.4303Z" fill="white"/>
<defs>
<linearGradient id="paint0_linear_16335_108556" x1="16.0003" y1="31.6799" x2="16.0003" y2="0.319946" gradientUnits="userSpaceOnUse">
<stop stop-color="#25CF43"/>
<stop offset="1" stop-color="#61FD7D"/>
</linearGradient>
</defs>
</svg>
