<svg width="32" height="32" viewBox="0 0 32 32" fill="none" xmlns="http://www.w3.org/2000/svg">
<g clip-path="url(#clip0_16194_62661)">
<path d="M0.320312 10.8386C0.320312 7.11794 0.320312 5.2576 1.05588 3.84158C1.67573 2.64831 2.64868 1.67537 3.84195 1.05551C5.25797 0.319946 7.11831 0.319946 10.839 0.319946H21.1616C24.8823 0.319946 26.7427 0.319946 28.1587 1.05551C29.3519 1.67537 30.3249 2.64831 30.9447 3.84158C31.6803 5.2576 31.6803 7.11794 31.6803 10.8386V21.1613C31.6803 24.882 31.6803 26.7423 30.9447 28.1583C30.3249 29.3516 29.3519 30.3245 28.1587 30.9444C26.7427 31.6799 24.8823 31.6799 21.1616 31.6799H10.839C7.11831 31.6799 5.25797 31.6799 3.84195 30.9444C2.64868 30.3245 1.67573 29.3516 1.05588 28.1583C0.320312 26.7423 0.320312 24.882 0.320312 21.1613V10.8386Z" fill="#e60023"/>
<path d="M17.5166 4.99697C14.8595 4.63146 12.1598 5.23967 9.91618 6.7093C7.67253 8.17893 6.03638 10.4107 5.30984 12.9926C4.58331 15.5744 4.81546 18.3319 5.96344 20.756C7.11141 23.18 9.09767 25.1068 11.5555 26.1807C11.489 25.3276 11.55 24.4694 11.7365 23.6343C11.9419 22.7026 13.1757 17.5677 13.1757 17.5677C12.93 17.017 12.8072 16.4194 12.8159 15.8165C12.8159 14.1674 13.7675 12.937 14.9513 12.937C15.164 12.9339 15.3748 12.9766 15.5695 13.0623C15.7642 13.1479 15.9381 13.2745 16.0795 13.4334C16.2209 13.5923 16.3264 13.7797 16.3889 13.983C16.4514 14.1863 16.4694 14.4007 16.4416 14.6116C16.4416 15.611 15.7997 17.1235 15.4644 18.5427C15.3981 18.803 15.3939 19.0752 15.4521 19.3374C15.5103 19.5996 15.6293 19.8445 15.7995 20.0522C15.9697 20.26 16.1863 20.4249 16.4319 20.5337C16.6775 20.6424 16.9452 20.6919 17.2134 20.6782C19.3211 20.6782 20.7336 17.9786 20.7336 14.7915C20.7336 12.3484 19.1157 10.5183 16.1329 10.5183C15.4193 10.4906 14.7074 10.6082 14.0407 10.864C13.3739 11.1197 12.766 11.5084 12.254 12.0063C11.742 12.5041 11.3365 13.1009 11.0622 13.7603C10.7879 14.4196 10.6504 15.1279 10.6582 15.842C10.6264 16.6341 10.8819 17.4111 11.3778 18.0297C11.4704 18.0988 11.5381 18.1962 11.5705 18.3072C11.603 18.4182 11.5985 18.5367 11.5577 18.6449C11.5066 18.8492 11.3778 19.3367 11.3267 19.5155C11.3161 19.5761 11.2914 19.6334 11.2545 19.6828C11.2177 19.7321 11.1698 19.7721 11.1147 19.7995C11.0596 19.827 10.9989 19.8411 10.9373 19.8407C10.8758 19.8404 10.8151 19.8256 10.7603 19.7976C9.22343 19.1824 8.49939 17.4911 8.49939 15.5599C8.49939 12.3984 11.1468 8.61383 16.4438 8.61383C20.6592 8.61383 23.4621 11.6977 23.4621 14.9958C23.4621 19.3367 21.0446 22.6004 17.4721 22.6004C16.9382 22.6175 16.4086 22.4997 15.9323 22.2578C15.4559 22.016 15.0483 21.6579 14.747 21.2168C14.747 21.2168 14.1051 23.7887 13.9785 24.2751C13.7201 25.1154 13.3388 25.9128 12.847 26.6415C13.8719 26.9524 14.9369 27.1079 16.0074 27.1035C17.4661 27.1046 18.9107 26.8181 20.2585 26.2601C21.6063 25.7022 22.8309 24.8839 23.862 23.8521C24.8931 22.8203 25.7105 21.5952 26.2675 20.247C26.8245 18.8988 27.11 17.454 27.1079 15.9953C27.1065 13.3134 26.1348 10.7226 24.3723 8.70131C22.6098 6.67998 20.1754 5.36461 17.5188 4.99808L17.5166 4.99697Z" fill="white"/>
</g>
<defs>
<clipPath id="clip0_16194_62661">
<rect width="31.36" height="31.36" fill="white" transform="translate(0.320312 0.319946)"/>
</clipPath>
</defs>
</svg>
