<svg width="32" height="32" viewBox="0 0 32 32" fill="none" xmlns="http://www.w3.org/2000/svg">
<rect x="0.320312" y="0.32019" width="31.36" height="31.36" rx="6.53333" fill="black"/>
<path d="M21.0884 15.2366C20.9968 15.1934 20.9038 15.1519 20.8095 15.1121C20.6454 12.1387 18.993 10.4364 16.2183 10.419C16.2058 10.4189 16.1933 10.4189 16.1807 10.4189C14.5211 10.4189 13.1409 11.1154 12.2913 12.3829L13.8173 13.4121C14.4519 12.4654 15.4479 12.2635 16.1814 12.2635C16.1899 12.2635 16.1984 12.2635 16.2068 12.2636C17.1204 12.2693 17.8098 12.5305 18.2559 13.0398C18.5807 13.4106 18.7978 13.923 18.9054 14.5697C18.0954 14.4343 17.2194 14.3927 16.2829 14.4455C13.6449 14.5949 11.949 16.1077 12.0629 18.2097C12.1207 19.2759 12.661 20.1932 13.5841 20.7924C14.3645 21.2989 15.3697 21.5467 16.4144 21.4906C17.794 21.4162 18.8763 20.8987 19.6314 19.9523C20.2048 19.2337 20.5675 18.3023 20.7277 17.1288C21.3852 17.519 21.8724 18.0324 22.1416 18.6496C22.5992 19.6987 22.6258 21.4228 21.1951 22.8283C19.9416 24.0596 18.4348 24.5923 16.1576 24.6087C13.6316 24.5903 11.7212 23.7938 10.4791 22.2413C9.31599 20.7875 8.71489 18.6877 8.69246 16.0001C8.71489 13.3125 9.31599 11.2126 10.4791 9.75887C11.7212 8.20635 13.6316 7.40984 16.1576 7.39139C18.7019 7.40998 20.6456 8.21033 21.9352 9.77033C22.5676 10.5353 23.0444 11.4974 23.3586 12.6191L25.1468 12.15C24.7659 10.7693 24.1664 9.57953 23.3507 8.59281C21.6974 6.59281 19.2793 5.568 16.1638 5.54675H16.1513C13.0421 5.56793 10.6512 6.59664 9.04497 8.60428C7.61565 10.3908 6.87837 12.8767 6.85359 15.9927L6.85352 16.0001L6.85359 16.0074C6.87837 19.1235 7.61565 21.6094 9.04497 23.3959C10.6512 25.4035 13.0421 26.4323 16.1513 26.4534H16.1638C18.9281 26.4346 20.8765 25.723 22.4817 24.1462C24.5817 22.0833 24.5185 19.4975 23.8263 17.9101C23.3297 16.7718 22.383 15.8472 21.0884 15.2366ZM16.3156 19.6486C15.1595 19.7127 13.9583 19.2024 13.8991 18.1095C13.8552 17.2991 14.4856 16.3949 16.3866 16.2872C16.6043 16.2749 16.8179 16.2688 17.0278 16.2688C17.7183 16.2688 18.3643 16.3348 18.9515 16.461C18.7325 19.1508 17.4476 19.5875 16.3156 19.6486Z" fill="white"/>
</svg>
