<svg version="1.0" xmlns="http://www.w3.org/2000/svg" width="24px" height="24px" viewBox="0 0 80 80" preserveAspectRatio="xMidYMid meet">
	<g transform="translate(0.000000,80.000000) scale(0.100000,-0.100000)" fill="#0866FF" stroke="none">
		<path d="M332 789 c-74 -12 -153 -52 -207 -105 -138 -133 -145 -377 -15 -517
			34 -38 40 -51 40 -89 0 -60 13 -71 59 -51 27 13 69 17 166 17 158 1 215 20
			300 97 169 156 157 441 -26 575 -86 63 -207 91 -317 73z m316 -252 c3 -17
			-118 -216 -144 -238 -10 -8 -28 0 -73 30 -33 23 -67 44 -75 47 -9 3 -47 -16
			-89 -45 -75 -52 -101 -61 -110 -38 -5 13 137 239 154 246 6 1 34 -12 62 -31
			96 -64 85 -64 173 -3 81 56 97 61 102 32z"/>
	</g>
</svg>
