<svg width="32" height="32" viewBox="0 0 32 32" fill="none" xmlns="http://www.w3.org/2000/svg">
<g clip-path="url(#clip0_16194_62658)">
<path d="M0.320312 10.8386C0.320312 7.11794 0.320312 5.2576 1.05588 3.84158C1.67573 2.64831 2.64868 1.67537 3.84195 1.05551C5.25797 0.319946 7.11831 0.319946 10.839 0.319946H21.1616C24.8823 0.319946 26.7427 0.319946 28.1587 1.05551C29.3519 1.67537 30.3249 2.64831 30.9447 3.84158C31.6803 5.2576 31.6803 7.11794 31.6803 10.8386V21.1613C31.6803 24.882 31.6803 26.7423 30.9447 28.1583C30.3249 29.3516 29.3519 30.3245 28.1587 30.9444C26.7427 31.6799 24.8823 31.6799 21.1616 31.6799H10.839C7.11831 31.6799 5.25797 31.6799 3.84195 30.9444C2.64868 30.3245 1.67573 29.3516 1.05588 28.1583C0.320312 26.7423 0.320312 24.882 0.320312 21.1613V10.8386Z" fill="#FC471E"/>
<path d="M26.4588 16C26.4426 15.5586 26.2992 15.1313 26.0457 14.7697C25.7922 14.408 25.4395 14.1274 25.0301 13.9617C24.6207 13.7959 24.1722 13.7521 23.7385 13.8356C23.3048 13.919 22.9045 14.1262 22.5858 14.432C20.8021 13.2195 18.7053 12.5496 16.549 12.5033L17.5682 7.61118L20.9237 8.31678C20.9636 8.68758 21.1344 9.03203 21.4053 9.28829C21.6763 9.54454 22.0297 9.69583 22.4022 9.71499C22.7746 9.73416 23.1417 9.61994 23.4375 9.39284C23.7334 9.16575 23.9386 8.84064 24.0163 8.47589C24.094 8.11114 24.0392 7.73062 23.8617 7.40264C23.6841 7.07467 23.3955 6.82071 23.0476 6.68635C22.6997 6.552 22.3153 6.54604 21.9634 6.66956C21.6115 6.79308 21.3152 7.03798 21.1276 7.3603L17.286 6.59198C17.2231 6.5782 17.1582 6.57702 17.0949 6.58852C17.0316 6.60002 16.9713 6.62396 16.9173 6.65897C16.8633 6.69397 16.8168 6.73934 16.7805 6.79244C16.7442 6.84553 16.7188 6.90531 16.7058 6.9683L15.5455 12.4093C13.3626 12.4422 11.2371 13.1125 9.43029 14.3379C9.18857 14.1105 8.90029 13.9383 8.58542 13.8334C8.27055 13.7284 7.93663 13.6932 7.60679 13.7301C7.27695 13.7671 6.95909 13.8753 6.67524 14.0473C6.39138 14.2193 6.14831 14.4509 5.96288 14.7262C5.77745 15.0014 5.65409 15.3137 5.60135 15.6414C5.54861 15.9691 5.56775 16.3043 5.65745 16.6239C5.74715 16.9434 5.90525 17.2396 6.12081 17.492C6.33637 17.7444 6.60422 17.9469 6.90581 18.0854C6.88816 18.3151 6.88816 18.5457 6.90581 18.7753C6.90581 22.2877 10.9983 25.1414 16.0472 25.1414C21.0962 25.1414 25.1887 22.2877 25.1887 18.7753C25.2063 18.5457 25.2063 18.3151 25.1887 18.0854C25.5756 17.8931 25.9002 17.5952 26.125 17.2262C26.3497 16.8571 26.4655 16.432 26.4588 16ZM10.7788 17.568C10.7788 17.1521 10.944 16.7533 11.238 16.4592C11.5321 16.1652 11.9309 16 12.3468 16C12.7626 16 13.1615 16.1652 13.4555 16.4592C13.7496 16.7533 13.9148 17.1521 13.9148 17.568C13.9148 17.9838 13.7496 18.3827 13.4555 18.6767C13.1615 18.9708 12.7626 19.136 12.3468 19.136C11.9309 19.136 11.5321 18.9708 11.238 18.6767C10.944 18.3827 10.7788 17.9838 10.7788 17.568ZM19.8888 21.88C18.7764 22.7183 17.4077 23.145 16.0159 23.0873C14.6241 23.145 13.2554 22.7183 12.1429 21.88C12.0763 21.7987 12.0422 21.6956 12.0473 21.5906C12.0525 21.4857 12.0965 21.3863 12.1708 21.312C12.2451 21.2377 12.3444 21.1937 12.4494 21.1885C12.5544 21.1834 12.6575 21.2175 12.7388 21.2841C13.6815 21.9756 14.8322 22.3242 16.0002 22.272C17.1696 22.3356 18.3257 21.9981 19.2773 21.3155C19.3174 21.2706 19.3663 21.2344 19.421 21.2092C19.4757 21.184 19.535 21.1703 19.5952 21.169C19.6554 21.1676 19.7152 21.1787 19.771 21.2015C19.8267 21.2243 19.8771 21.2583 19.9192 21.3014C19.9612 21.3445 19.9939 21.3958 20.0153 21.4521C20.0367 21.5084 20.0462 21.5685 20.0434 21.6286C20.0405 21.6888 20.0254 21.7477 19.9988 21.8017C19.9722 21.8558 19.9348 21.9037 19.8888 21.9427V21.88ZM19.6066 19.1987C19.2965 19.1987 18.9933 19.1067 18.7355 18.9344C18.4776 18.7622 18.2766 18.5173 18.158 18.2307C18.0393 17.9442 18.0082 17.629 18.0687 17.3248C18.1292 17.0206 18.2786 16.7412 18.4979 16.522C18.7172 16.3027 18.9965 16.1533 19.3007 16.0928C19.6049 16.0323 19.9201 16.0634 20.2067 16.1821C20.4932 16.3007 20.7381 16.5017 20.9104 16.7596C21.0826 17.0174 21.1746 17.3206 21.1746 17.6307C21.1831 17.8432 21.1483 18.0551 21.0724 18.2537C20.9964 18.4523 20.8809 18.6334 20.7327 18.7859C20.5846 18.9384 20.407 19.0593 20.2107 19.141C20.0144 19.2227 19.8035 19.2637 19.5909 19.2614L19.6066 19.1987Z" fill="white"/>
</g>
<defs>
<clipPath id="clip0_16194_62658">
<rect width="31.36" height="31.36" fill="white" transform="translate(0.320312 0.319946)"/>
</clipPath>
</defs>
</svg>
