<svg width="32" height="32" viewBox="0 0 32 32" fill="none" xmlns="http://www.w3.org/2000/svg">
<g clip-path="url(#clip0_16392_123504)">
<path d="M25.286 0.49231H6.6786C3.27697 0.49231 0.492188 3.27709 0.492188 6.67872V25.2861C0.492188 28.6878 3.27697 31.4726 6.6786 31.4726H25.286C28.6877 31.4726 31.4724 28.6878 31.4724 25.2861V6.67872C31.4724 3.27709 28.6877 0.49231 25.286 0.49231Z" fill="#001935"/>
<path d="M21.3184 25.6311H18.0538C15.1141 25.6311 12.9231 24.1185 12.9231 20.5004V14.7061H10.252V11.5684C13.1916 10.805 14.4212 8.27524 14.5627 6.08459H17.6153V11.0597H21.1766V14.7061H17.6153V19.7517C17.6153 21.2639 18.3788 21.7868 19.5939 21.7868H21.3184V25.6311Z" fill="white"/>
</g>
<defs>
<clipPath id="clip0_16392_123504">
<rect width="31.36" height="31.36" fill="white" transform="translate(0.320312 0.319946)"/>
</clipPath>
</defs>
</svg>
