<svg width="32" height="32" viewBox="0 0 32 32" fill="none" xmlns="http://www.w3.org/2000/svg">
<g clip-path="url(#clip0_16335_109328)">
<path d="M0.320312 10.8386C0.320312 7.11794 0.320312 5.2576 1.05588 3.84158C1.67573 2.64831 2.64868 1.67537 3.84195 1.05551C5.25797 0.319946 7.11831 0.319946 10.839 0.319946H21.1616C24.8823 0.319946 26.7427 0.319946 28.1587 1.05551C29.3519 1.67537 30.3249 2.64831 30.9447 3.84158C31.6803 5.2576 31.6803 7.11794 31.6803 10.8386V21.1613C31.6803 24.882 31.6803 26.7423 30.9447 28.1583C30.3249 29.3516 29.3519 30.3245 28.1587 30.9444C26.7427 31.6799 24.8823 31.6799 21.1616 31.6799H10.839C7.11831 31.6799 5.25797 31.6799 3.84195 30.9444C2.64868 30.3245 1.67573 29.3516 1.05588 28.1583C0.320312 26.7423 0.320312 24.882 0.320312 21.1613V10.8386Z" fill="url(#paint0_linear_16335_109328)"/>
<path d="M12.4063 24.3299C11.7713 24.3299 11.8792 24.0901 11.6602 23.4855L9.79297 17.3402L24.1663 8.81323" fill="#C8DAEA"/>
<path d="M12.4062 24.33C12.8962 24.33 13.1127 24.1059 13.3862 23.84L15.9996 21.2988L12.7398 19.3331" fill="#A9C9DD"/>
<path d="M12.7404 19.3335L20.6392 25.1693C21.5406 25.6666 22.1911 25.4091 22.4156 24.3324L25.6309 9.18114C25.96 7.86138 25.1278 7.26279 24.2655 7.65427L5.38579 14.9342C4.09707 15.4511 4.10458 16.1701 5.15088 16.4904L9.99584 18.0026L21.2124 10.9262C21.7419 10.6051 22.2279 10.7777 21.829 11.1318" fill="url(#paint1_linear_16335_109328)"/>
</g>
<defs>
<linearGradient id="paint0_linear_16335_109328" x1="21.228" y1="5.54766" x2="13.388" y2="23.8399" gradientUnits="userSpaceOnUse">
<stop stop-color="#37AEE2"/>
<stop offset="1" stop-color="#1E96C8"/>
</linearGradient>
<linearGradient id="paint1_linear_16335_109328" x1="18.4513" y1="15.3464" x2="21.5186" y2="22.3261" gradientUnits="userSpaceOnUse">
<stop stop-color="#EFF7FC"/>
<stop offset="1" stop-color="white"/>
</linearGradient>
<clipPath id="clip0_16335_109328">
<rect width="31.36" height="31.36" fill="white" transform="translate(0.320312 0.319946)"/>
</clipPath>
</defs>
</svg>
