<svg width="32" height="32" viewBox="0 0 32 32" fill="none" xmlns="http://www.w3.org/2000/svg">
    <path d="M0.320312 10.8387C0.320312 7.11806 0.320312 5.25773 1.05588 3.8417C1.67573 2.64843 2.64868 1.67549 3.84195 1.05563C5.25797 0.320068 7.11831 0.320068 10.839 0.320068H21.1616C24.8823 0.320068 26.7427 0.320068 28.1587 1.05563C29.3519 1.67549 30.3249 2.64843 30.9447 3.8417C31.6803 5.25773 31.6803 7.11806 31.6803 10.8387V21.1614C31.6803 24.8821 31.6803 26.7424 30.9447 28.1584C30.3249 29.3517 29.3519 30.3246 28.1587 30.9445C26.7427 31.6801 24.8823 31.6801 21.1616 31.6801H10.839C7.11831 31.6801 5.25797 31.6801 3.84195 30.9445C2.64868 30.3246 1.67573 29.3517 1.05588 28.1584C0.320312 26.7424 0.320312 24.8821 0.320312 21.1614V10.8387Z" fill="url(#paint0_linear_11381_69968)" />
    <path d="M22.0979 20.3556L22.7948 16.0001H18.6135V12.9512C18.6135 11.7316 19.049 10.7734 20.9655 10.7734H22.969V6.76629C21.8366 6.59207 20.617 6.41785 19.4846 6.41785C15.913 6.41785 13.3868 8.59562 13.3868 12.5156V16.0001H9.4668V20.3556H13.3868V31.6801C15.129 31.6801 16.8712 31.6801 18.6135 31.6801V20.3556H22.0979Z" fill="white" />
    <defs>
        <linearGradient id="paint0_linear_11381_69968" x1="16.0003" y1="30.7638" x2="16.0003" y2="0.320068" gradientUnits="userSpaceOnUse">
            <stop stop-color="#0062E0" />
            <stop offset="1" stop-color="#19AFFF" />
        </linearGradient>
    </defs>
</svg>